<?xml version="1.0" encoding="UTF-8"?>
<svg width="331px" height="331px" viewBox="0 0 331 331" version="1.1" xmlns="http://www.w3.org/2000/svg" xmlns:xlink="http://www.w3.org/1999/xlink">
    <!-- Generator: Sketch 52.2 (67145) - http://www.bohemiancoding.com/sketch -->
    <title>Group</title>
    <desc>Created with Sketch.</desc>
    <defs>
        <path d="M142.15,116 L142.15,215 L125.95,215 L125.95,171.8 L77.05,171.8 L77.05,215 L61,215 L61,116 L77.05,116 L77.05,158 L125.95,158 L125.95,116 L142.15,116 Z M270.65,215 L255.95,215 L255.95,157.7 L257,130.4 L256.85,130.4 L226.7,215 L213.35,215 L183.2,130.4 L183.05,130.4 L184.25,157.7 L184.25,215 L169.4,215 L169.4,116 L193.25,116 L213.2,173.3 L220.1,196.85 L220.4,196.85 L227.45,173.3 L247.25,116 L270.65,116 L270.65,215 Z" id="path-1"></path>
    </defs>
    <g id="Page-1" stroke="none" stroke-width="1" fill="none" fill-rule="evenodd">
        <g id="Group">
            <rect id="Rectangle" fill="#3DBBFF" x="0" y="0" width="331" height="331"></rect>
            <g id="HM" fill="#FFFFFF">
                <use xlink:href="#path-1"></use>
                <use xlink:href="#path-1"></use>
            </g>
        </g>
    </g>
</svg>